<svg width="82" height="20" viewBox="0 0 82 20" fill="none" xmlns="http://www.w3.org/2000/svg">
<path d="M0.248 0.999999H13.448V5.296H12.2L11.264 2.032H5.12V8.224H7.28C10.848 8.224 13.104 9.168 14.048 11.056C14.416 11.792 14.6 12.68 14.6 13.72C14.6 15.464 14.04 16.784 12.92 17.68C11.816 18.56 10 19 7.472 19H0.2V18.112L2.576 17.56V2.464L0.248 1.888V0.999999ZM5.12 18.04H7.784C10.472 18.04 11.816 16.568 11.816 13.624C11.816 10.664 10.472 9.184 7.784 9.184H5.12V18.04ZM16.1591 19V18.112L18.2951 17.584L25.5671 0.808H26.7911L33.7031 17.584L35.7191 18.112V19H28.9031V18.112L30.9911 17.608L29.0951 12.952H21.8471L20.0471 17.608L22.2071 18.112V19H16.1591ZM22.1831 12.04H28.7591L25.3991 3.616L22.1831 12.04ZM37.2838 0.999999H44.5078C47.0518 0.999999 48.8758 1.408 49.9798 2.224C51.0838 3.024 51.6358 4.288 51.6358 6.016C51.6358 8.112 50.9238 9.528 49.4998 10.264C48.2358 10.904 46.5078 11.224 44.3158 11.224H42.1318V17.56L44.5798 18.112V19H37.2838V18.112L39.6118 17.56V2.44L37.2838 1.888V0.999999ZM42.1318 10.264H44.8198C46.1798 10.264 47.1878 9.928 47.8438 9.256C48.5158 8.584 48.8518 7.536 48.8518 6.112C48.8518 4.688 48.5158 3.64 47.8438 2.968C47.1878 2.296 46.1798 1.96 44.8198 1.96H42.1318V10.264ZM50.7586 17.704C50.7586 17.256 50.9026 16.888 51.1906 16.6C51.4946 16.296 51.8786 16.144 52.3426 16.144C52.8066 16.144 53.1826 16.288 53.4706 16.576C53.7746 16.848 53.9266 17.216 53.9266 17.68C53.9266 18.144 53.7826 18.528 53.4946 18.832C53.2066 19.12 52.8306 19.264 52.3666 19.264C51.9026 19.264 51.5186 19.112 51.2146 18.808C50.9106 18.504 50.7586 18.136 50.7586 17.704ZM56.0872 5.968V0.999999H67.8952V2.152C65.8792 5 64.2872 7.968 63.1192 11.056C61.9672 14.128 61.3592 16.776 61.2952 19H58.3432C58.8552 16.616 59.8632 13.904 61.3672 10.864C62.8872 7.824 64.5672 5.176 66.4072 2.92H57.9832L57.3352 5.968H56.0872ZM75.5639 10.12H75.3479C74.2919 10.12 73.4599 10.536 72.8519 11.368C72.2599 12.2 71.9639 13.224 71.9639 14.44C71.9639 15.656 72.2919 16.632 72.9479 17.368C73.6199 18.088 74.4119 18.448 75.3239 18.448C76.2519 18.448 77.0599 18.08 77.7479 17.344C78.4359 16.592 78.7799 15.608 78.7799 14.392C78.7799 13.16 78.4999 12.144 77.9399 11.344C77.3799 10.528 76.5879 10.12 75.5639 10.12ZM73.0679 8.08C73.6119 8.816 74.3799 9.184 75.3719 9.184C76.3639 9.184 77.1399 8.8 77.6999 8.032C78.2759 7.264 78.5639 6.32 78.5639 5.2C78.5639 4.08 78.2519 3.2 77.6279 2.56C77.0199 1.904 76.2839 1.576 75.4199 1.576C74.5559 1.576 73.8119 1.912 73.1879 2.584C72.5799 3.256 72.2759 4.152 72.2759 5.272C72.2759 6.392 72.5399 7.328 73.0679 8.08ZM81.4919 14.416C81.4919 15.968 80.8919 17.176 79.6919 18.04C78.4919 18.904 77.0599 19.336 75.3959 19.336C73.7479 19.336 72.3159 18.904 71.0999 18.04C69.8839 17.16 69.2759 15.952 69.2759 14.416C69.2759 13.344 69.6439 12.368 70.3799 11.488C71.1159 10.608 72.1959 9.984 73.6199 9.616C72.3719 9.312 71.4199 8.776 70.7639 8.008C70.1239 7.24 69.8039 6.376 69.8039 5.416C69.8039 3.96 70.3559 2.816 71.4599 1.984C72.5799 1.152 73.8919 0.735999 75.3959 0.735999C76.9159 0.735999 78.2359 1.152 79.3559 1.984C80.4759 2.816 81.0359 3.976 81.0359 5.464C81.0359 6.408 80.7079 7.264 80.0519 8.032C79.4119 8.784 78.4599 9.312 77.1959 9.616C78.5879 9.984 79.6519 10.608 80.3879 11.488C81.1239 12.368 81.4919 13.344 81.4919 14.416Z" fill="#F9AC54"/>
</svg>
