<svg width="48" height="48" viewBox="0 0 48 48" xmlns="http://www.w3.org/2000/svg">
  <path d="M26.324 37.988C27.542 37.988 28.04 37.176 28.026 36.158C27.964 32.324 29.454 30.26 32.144 32.95C35.12 35.926 35.736 37.988 39.35 37.988H45.75C47.366 37.988 48.002 37.468 48.002 36.652C48.002 34.926 45.16 31.88 42.752 29.644C39.38 26.514 39.222 26.44 42.126 22.672C45.728 17.994 50.44 12 46.272 12H38.31C36.766 12 36.654 12.87 36.104 14.166C34.114 18.86 30.332 24.94 28.896 24.01C27.394 23.04 28.082 19.198 28.196 13.488C28.226 11.98 28.218 10.946 25.914 10.41C24.656 10.12 23.432 10 22.296 10C17.75 10 14.614 11.906 16.396 12.238C19.538 12.824 19.236 19.622 18.504 22.558C17.228 27.67 12.432 18.51 10.434 13.948C9.952 12.852 9.804 12 8.084 12H1.574C0.59 12 0 12.32 0 13.032C0 14.236 5.92 26.472 11.572 32.572C17.084 38.522 22.532 37.988 26.324 37.988Z"/>
</svg>
